<mxfile modified="2024-06-08T22:13:08.142Z" host="app.diagrams.net" agent="Mozilla/5.0 (Windows NT 10.0; Win64; x64) AppleWebKit/537.36 (KHTML, like Gecko) Chrome/125.0.0.0 Safari/537.36 Edg/125.0.0.0" etag="1KygT74FyAEoelN1OuKL" version="24.5.2" type="device">
  <diagram id="Ht1M8jgEwFfnCIfOTk4-" name="Page-1">
    <mxGraphModel dx="3762" dy="2207" grid="1" gridSize="10" guides="1" tooltips="1" connect="1" arrows="1" fold="1" page="1" pageScale="1" pageWidth="1169" pageHeight="827" math="0" shadow="0">
      <root>
        <mxCell id="0" />
        <mxCell id="1" parent="0" />
        <mxCell id="UEzPUAAOIrF-is8g5C7q-128" style="edgeStyle=orthogonalEdgeStyle;rounded=0;orthogonalLoop=1;jettySize=auto;html=1;startArrow=open;startFill=0;endArrow=open;endFill=0;strokeWidth=2;strokeColor=#808080;" parent="1" source="UEzPUAAOIrF-is8g5C7q-109" target="UEzPUAAOIrF-is8g5C7q-114" edge="1">
          <mxGeometry relative="1" as="geometry">
            <Array as="points">
              <mxPoint x="270" y="362" />
              <mxPoint x="270" y="362" />
            </Array>
          </mxGeometry>
        </mxCell>
        <mxCell id="UEzPUAAOIrF-is8g5C7q-109" value="Movies Client" style="outlineConnect=0;gradientColor=none;fontColor=#545B64;strokeColor=none;fillColor=#879196;dashed=0;verticalLabelPosition=bottom;verticalAlign=top;align=center;html=1;fontSize=12;fontStyle=0;aspect=fixed;shape=mxgraph.aws4.illustration_desktop;pointerEvents=1;labelBackgroundColor=#ffffff;" parent="1" vertex="1">
          <mxGeometry x="10" y="323" width="100" height="91" as="geometry" />
        </mxCell>
        <mxCell id="UEzPUAAOIrF-is8g5C7q-111" value="Amazon &lt;br&gt;Cognito" style="outlineConnect=0;fontColor=#232F3E;gradientColor=#F54749;gradientDirection=north;fillColor=#C7131F;strokeColor=#ffffff;dashed=0;verticalLabelPosition=bottom;verticalAlign=top;align=center;html=1;fontSize=12;fontStyle=0;aspect=fixed;shape=mxgraph.aws4.resourceIcon;resIcon=mxgraph.aws4.cognito;labelBackgroundColor=#ffffff;" parent="1" vertex="1">
          <mxGeometry x="-210" y="-40" width="78" height="78" as="geometry" />
        </mxCell>
        <mxCell id="UEzPUAAOIrF-is8g5C7q-114" value="CloudMovies&lt;div&gt;API Gateway&lt;/div&gt;" style="outlineConnect=0;fontColor=#232F3E;gradientColor=#945DF2;gradientDirection=north;fillColor=#5A30B5;strokeColor=#ffffff;dashed=0;verticalLabelPosition=bottom;verticalAlign=top;align=center;html=1;fontSize=12;fontStyle=0;aspect=fixed;shape=mxgraph.aws4.resourceIcon;resIcon=mxgraph.aws4.api_gateway;labelBackgroundColor=#ffffff;" parent="1" vertex="1">
          <mxGeometry x="340" y="323" width="78" height="78" as="geometry" />
        </mxCell>
        <mxCell id="zBTWU3pzQS9BH3Dmyjje-1" value="addMovie" style="sketch=0;points=[[0,0,0],[0.25,0,0],[0.5,0,0],[0.75,0,0],[1,0,0],[0,1,0],[0.25,1,0],[0.5,1,0],[0.75,1,0],[1,1,0],[0,0.25,0],[0,0.5,0],[0,0.75,0],[1,0.25,0],[1,0.5,0],[1,0.75,0]];outlineConnect=0;fontColor=#232F3E;fillColor=#ED7100;strokeColor=#ffffff;dashed=0;verticalLabelPosition=bottom;verticalAlign=top;align=center;html=1;fontSize=12;fontStyle=0;aspect=fixed;shape=mxgraph.aws4.resourceIcon;resIcon=mxgraph.aws4.lambda;" parent="1" vertex="1">
          <mxGeometry x="700" y="-330" width="78" height="78" as="geometry" />
        </mxCell>
        <mxCell id="zBTWU3pzQS9BH3Dmyjje-2" value="Movies Table" style="sketch=0;outlineConnect=0;fontColor=#232F3E;gradientColor=none;strokeColor=#ffffff;fillColor=#232F3E;dashed=0;verticalLabelPosition=middle;verticalAlign=bottom;align=center;html=1;whiteSpace=wrap;fontSize=10;fontStyle=1;spacing=3;shape=mxgraph.aws4.productIcon;prIcon=mxgraph.aws4.dynamodb;" parent="1" vertex="1">
          <mxGeometry x="1089" y="250" width="80" height="100" as="geometry" />
        </mxCell>
        <mxCell id="zBTWU3pzQS9BH3Dmyjje-3" value="" style="edgeStyle=orthogonalEdgeStyle;html=1;endArrow=block;elbow=vertical;startArrow=none;endFill=1;strokeColor=#545B64;rounded=0;" parent="1" source="zBTWU3pzQS9BH3Dmyjje-1" target="zBTWU3pzQS9BH3Dmyjje-2" edge="1">
          <mxGeometry width="100" relative="1" as="geometry">
            <mxPoint x="830" y="40" as="sourcePoint" />
            <mxPoint x="930" y="40" as="targetPoint" />
          </mxGeometry>
        </mxCell>
        <mxCell id="zBTWU3pzQS9BH3Dmyjje-4" value="Cloud Movies S3 Bucket" style="sketch=0;outlineConnect=0;fontColor=#232F3E;gradientColor=none;strokeColor=#ffffff;fillColor=#232F3E;dashed=0;verticalLabelPosition=middle;verticalAlign=bottom;align=center;html=1;whiteSpace=wrap;fontSize=10;fontStyle=1;spacing=3;shape=mxgraph.aws4.productIcon;prIcon=mxgraph.aws4.s3;" parent="1" vertex="1">
          <mxGeometry x="860" y="-480" width="80" height="110" as="geometry" />
        </mxCell>
        <mxCell id="zBTWU3pzQS9BH3Dmyjje-8" value="" style="edgeStyle=orthogonalEdgeStyle;html=1;endArrow=block;elbow=vertical;startArrow=none;endFill=1;strokeColor=#545B64;rounded=0;" parent="1" source="UEzPUAAOIrF-is8g5C7q-109" target="zBTWU3pzQS9BH3Dmyjje-4" edge="1">
          <mxGeometry width="100" relative="1" as="geometry">
            <mxPoint x="80" y="-255.06" as="sourcePoint" />
            <mxPoint x="598" y="-280.0011764705883" as="targetPoint" />
            <Array as="points">
              <mxPoint x="60" y="-450" />
            </Array>
          </mxGeometry>
        </mxCell>
        <mxCell id="zBTWU3pzQS9BH3Dmyjje-9" value="Upload/Edit&amp;nbsp; Movie file to S3 with Presigned URL" style="edgeLabel;html=1;align=center;verticalAlign=middle;resizable=0;points=[];" parent="zBTWU3pzQS9BH3Dmyjje-8" vertex="1" connectable="0">
          <mxGeometry x="0.2356" y="-4" relative="1" as="geometry">
            <mxPoint x="351" y="-24" as="offset" />
          </mxGeometry>
        </mxCell>
        <mxCell id="zBTWU3pzQS9BH3Dmyjje-10" value="" style="edgeStyle=orthogonalEdgeStyle;html=1;endArrow=block;elbow=vertical;startArrow=block;startFill=1;endFill=1;strokeColor=#545B64;rounded=0;" parent="1" source="UEzPUAAOIrF-is8g5C7q-114" target="zBTWU3pzQS9BH3Dmyjje-1" edge="1">
          <mxGeometry width="100" relative="1" as="geometry">
            <mxPoint x="280" as="sourcePoint" />
            <mxPoint x="380" as="targetPoint" />
            <Array as="points">
              <mxPoint x="510" y="330" />
              <mxPoint x="510" y="-301" />
            </Array>
          </mxGeometry>
        </mxCell>
        <mxCell id="zBTWU3pzQS9BH3Dmyjje-11" value="S3 Bucket Presigned URL Response" style="edgeLabel;html=1;align=center;verticalAlign=middle;resizable=0;points=[];" parent="zBTWU3pzQS9BH3Dmyjje-10" vertex="1" connectable="0">
          <mxGeometry x="0.4868" y="-1" relative="1" as="geometry">
            <mxPoint x="-1" y="51" as="offset" />
          </mxGeometry>
        </mxCell>
        <mxCell id="zBTWU3pzQS9BH3Dmyjje-12" style="edgeStyle=orthogonalEdgeStyle;rounded=0;orthogonalLoop=1;jettySize=auto;html=1;exitX=0.5;exitY=1;exitDx=0;exitDy=0;exitPerimeter=0;" parent="1" source="zBTWU3pzQS9BH3Dmyjje-1" target="zBTWU3pzQS9BH3Dmyjje-1" edge="1">
          <mxGeometry relative="1" as="geometry" />
        </mxCell>
        <mxCell id="zBTWU3pzQS9BH3Dmyjje-13" value="getMovie" style="sketch=0;points=[[0,0,0],[0.25,0,0],[0.5,0,0],[0.75,0,0],[1,0,0],[0,1,0],[0.25,1,0],[0.5,1,0],[0.75,1,0],[1,1,0],[0,0.25,0],[0,0.5,0],[0,0.75,0],[1,0.25,0],[1,0.5,0],[1,0.75,0]];outlineConnect=0;fontColor=#232F3E;fillColor=#ED7100;strokeColor=#ffffff;dashed=0;verticalLabelPosition=bottom;verticalAlign=top;align=center;html=1;fontSize=12;fontStyle=0;aspect=fixed;shape=mxgraph.aws4.resourceIcon;resIcon=mxgraph.aws4.lambda;" parent="1" vertex="1">
          <mxGeometry x="700" y="-160" width="78" height="78" as="geometry" />
        </mxCell>
        <mxCell id="zBTWU3pzQS9BH3Dmyjje-14" value="" style="edgeStyle=orthogonalEdgeStyle;html=1;endArrow=block;elbow=vertical;startArrow=block;startFill=1;endFill=1;strokeColor=#545B64;rounded=0;" parent="1" source="UEzPUAAOIrF-is8g5C7q-114" target="zBTWU3pzQS9BH3Dmyjje-13" edge="1">
          <mxGeometry width="100" relative="1" as="geometry">
            <mxPoint x="560" y="130" as="sourcePoint" />
            <mxPoint x="660" y="130" as="targetPoint" />
            <Array as="points">
              <mxPoint x="530" y="340" />
              <mxPoint x="530" y="-121" />
            </Array>
          </mxGeometry>
        </mxCell>
        <mxCell id="zBTWU3pzQS9BH3Dmyjje-16" value="downloadMovie" style="sketch=0;points=[[0,0,0],[0.25,0,0],[0.5,0,0],[0.75,0,0],[1,0,0],[0,1,0],[0.25,1,0],[0.5,1,0],[0.75,1,0],[1,1,0],[0,0.25,0],[0,0.5,0],[0,0.75,0],[1,0.25,0],[1,0.5,0],[1,0.75,0]];outlineConnect=0;fontColor=#232F3E;fillColor=#ED7100;strokeColor=#ffffff;dashed=0;verticalLabelPosition=bottom;verticalAlign=top;align=center;html=1;fontSize=12;fontStyle=0;aspect=fixed;shape=mxgraph.aws4.resourceIcon;resIcon=mxgraph.aws4.lambda;" parent="1" vertex="1">
          <mxGeometry x="700" width="78" height="78" as="geometry" />
        </mxCell>
        <mxCell id="zBTWU3pzQS9BH3Dmyjje-17" value="" style="edgeStyle=orthogonalEdgeStyle;html=1;endArrow=block;elbow=vertical;startArrow=block;startFill=1;endFill=1;strokeColor=#545B64;rounded=0;" parent="1" source="UEzPUAAOIrF-is8g5C7q-114" target="zBTWU3pzQS9BH3Dmyjje-16" edge="1">
          <mxGeometry width="100" relative="1" as="geometry">
            <mxPoint x="520" y="380" as="sourcePoint" />
            <mxPoint x="620" y="380" as="targetPoint" />
            <Array as="points">
              <mxPoint x="620" y="350" />
              <mxPoint x="620" y="39" />
            </Array>
          </mxGeometry>
        </mxCell>
        <mxCell id="zBTWU3pzQS9BH3Dmyjje-18" value="S3 Bucket Presigned URL Response" style="edgeLabel;html=1;align=center;verticalAlign=middle;resizable=0;points=[];" parent="zBTWU3pzQS9BH3Dmyjje-17" vertex="1" connectable="0">
          <mxGeometry x="0.216" y="1" relative="1" as="geometry">
            <mxPoint x="11" y="-72" as="offset" />
          </mxGeometry>
        </mxCell>
        <mxCell id="zBTWU3pzQS9BH3Dmyjje-19" value="" style="edgeStyle=orthogonalEdgeStyle;html=1;endArrow=block;elbow=vertical;startArrow=block;startFill=1;endFill=1;strokeColor=#545B64;rounded=0;" parent="1" source="UEzPUAAOIrF-is8g5C7q-109" target="zBTWU3pzQS9BH3Dmyjje-4" edge="1">
          <mxGeometry width="100" relative="1" as="geometry">
            <mxPoint x="200" y="-50" as="sourcePoint" />
            <mxPoint x="300" y="-50" as="targetPoint" />
            <Array as="points">
              <mxPoint x="80" y="-420" />
            </Array>
          </mxGeometry>
        </mxCell>
        <mxCell id="zBTWU3pzQS9BH3Dmyjje-20" value="Download Movie file from S3 with Presigned URL" style="edgeLabel;html=1;align=center;verticalAlign=middle;resizable=0;points=[];" parent="zBTWU3pzQS9BH3Dmyjje-19" vertex="1" connectable="0">
          <mxGeometry x="0.6654" relative="1" as="geometry">
            <mxPoint x="2" y="-15" as="offset" />
          </mxGeometry>
        </mxCell>
        <mxCell id="zBTWU3pzQS9BH3Dmyjje-21" value="" style="edgeStyle=orthogonalEdgeStyle;html=1;endArrow=block;elbow=vertical;startArrow=block;startFill=1;endFill=1;strokeColor=#545B64;rounded=0;" parent="1" source="UEzPUAAOIrF-is8g5C7q-111" target="UEzPUAAOIrF-is8g5C7q-109" edge="1">
          <mxGeometry width="100" relative="1" as="geometry">
            <mxPoint x="-90" y="210" as="sourcePoint" />
            <mxPoint x="10" y="210" as="targetPoint" />
            <Array as="points">
              <mxPoint x="30" y="-1" />
            </Array>
          </mxGeometry>
        </mxCell>
        <mxCell id="zBTWU3pzQS9BH3Dmyjje-22" value="editMovie" style="sketch=0;points=[[0,0,0],[0.25,0,0],[0.5,0,0],[0.75,0,0],[1,0,0],[0,1,0],[0.25,1,0],[0.5,1,0],[0.75,1,0],[1,1,0],[0,0.25,0],[0,0.5,0],[0,0.75,0],[1,0.25,0],[1,0.5,0],[1,0.75,0]];outlineConnect=0;fontColor=#232F3E;fillColor=#ED7100;strokeColor=#ffffff;dashed=0;verticalLabelPosition=bottom;verticalAlign=top;align=center;html=1;fontSize=12;fontStyle=0;aspect=fixed;shape=mxgraph.aws4.resourceIcon;resIcon=mxgraph.aws4.lambda;" parent="1" vertex="1">
          <mxGeometry x="701" y="150" width="78" height="78" as="geometry" />
        </mxCell>
        <mxCell id="zBTWU3pzQS9BH3Dmyjje-23" value="" style="edgeStyle=orthogonalEdgeStyle;html=1;endArrow=block;elbow=vertical;startArrow=block;startFill=1;endFill=1;strokeColor=#545B64;rounded=0;entryX=0;entryY=0.5;entryDx=0;entryDy=0;entryPerimeter=0;" parent="1" source="UEzPUAAOIrF-is8g5C7q-114" target="zBTWU3pzQS9BH3Dmyjje-22" edge="1">
          <mxGeometry width="100" relative="1" as="geometry">
            <mxPoint x="490" y="380" as="sourcePoint" />
            <mxPoint x="660" y="360" as="targetPoint" />
            <Array as="points">
              <mxPoint x="640" y="360" />
              <mxPoint x="640" y="189" />
            </Array>
          </mxGeometry>
        </mxCell>
        <mxCell id="zBTWU3pzQS9BH3Dmyjje-24" value="" style="edgeStyle=orthogonalEdgeStyle;html=1;endArrow=block;elbow=vertical;startArrow=none;endFill=1;strokeColor=#545B64;rounded=0;" parent="1" source="zBTWU3pzQS9BH3Dmyjje-22" target="zBTWU3pzQS9BH3Dmyjje-2" edge="1">
          <mxGeometry width="100" relative="1" as="geometry">
            <mxPoint x="830" y="210" as="sourcePoint" />
            <mxPoint x="1080" y="270" as="targetPoint" />
            <Array as="points">
              <mxPoint x="1020" y="190" />
              <mxPoint x="1020" y="260" />
            </Array>
          </mxGeometry>
        </mxCell>
        <mxCell id="zBTWU3pzQS9BH3Dmyjje-26" value="S3 Bucket Presigned URL Response" style="edgeLabel;html=1;align=center;verticalAlign=middle;resizable=0;points=[];" parent="1" vertex="1" connectable="0">
          <mxGeometry x="640" y="259.9988235294115" as="geometry" />
        </mxCell>
        <mxCell id="zBTWU3pzQS9BH3Dmyjje-27" value="deleteMovie" style="sketch=0;points=[[0,0,0],[0.25,0,0],[0.5,0,0],[0.75,0,0],[1,0,0],[0,1,0],[0.25,1,0],[0.5,1,0],[0.75,1,0],[1,1,0],[0,0.25,0],[0,0.5,0],[0,0.75,0],[1,0.25,0],[1,0.5,0],[1,0.75,0]];outlineConnect=0;fontColor=#232F3E;fillColor=#ED7100;strokeColor=#ffffff;dashed=0;verticalLabelPosition=bottom;verticalAlign=top;align=center;html=1;fontSize=12;fontStyle=0;aspect=fixed;shape=mxgraph.aws4.resourceIcon;resIcon=mxgraph.aws4.lambda;" parent="1" vertex="1">
          <mxGeometry x="700" y="282" width="78" height="78" as="geometry" />
        </mxCell>
        <mxCell id="zBTWU3pzQS9BH3Dmyjje-28" value="" style="edgeStyle=orthogonalEdgeStyle;html=1;endArrow=block;elbow=vertical;startArrow=block;startFill=1;endFill=1;strokeColor=#545B64;rounded=0;" parent="1" source="UEzPUAAOIrF-is8g5C7q-114" target="zBTWU3pzQS9BH3Dmyjje-27" edge="1">
          <mxGeometry width="100" relative="1" as="geometry">
            <mxPoint x="430" y="380" as="sourcePoint" />
            <mxPoint x="550" y="380" as="targetPoint" />
            <Array as="points">
              <mxPoint x="650" y="370" />
              <mxPoint x="650" y="321" />
            </Array>
          </mxGeometry>
        </mxCell>
        <mxCell id="zBTWU3pzQS9BH3Dmyjje-29" value="" style="edgeStyle=orthogonalEdgeStyle;html=1;endArrow=block;elbow=vertical;startArrow=none;endFill=1;strokeColor=#545B64;rounded=0;" parent="1" source="zBTWU3pzQS9BH3Dmyjje-27" target="zBTWU3pzQS9BH3Dmyjje-2" edge="1">
          <mxGeometry width="100" relative="1" as="geometry">
            <mxPoint x="810" y="330" as="sourcePoint" />
            <mxPoint x="910" y="330" as="targetPoint" />
            <Array as="points">
              <mxPoint x="1020" y="320" />
              <mxPoint x="1020" y="270" />
            </Array>
          </mxGeometry>
        </mxCell>
        <mxCell id="zBTWU3pzQS9BH3Dmyjje-31" value="" style="edgeStyle=orthogonalEdgeStyle;html=1;endArrow=block;elbow=vertical;startArrow=none;endFill=1;strokeColor=#545B64;rounded=0;" parent="1" source="zBTWU3pzQS9BH3Dmyjje-27" target="zBTWU3pzQS9BH3Dmyjje-4" edge="1">
          <mxGeometry width="100" relative="1" as="geometry">
            <mxPoint x="800" y="290" as="sourcePoint" />
            <mxPoint x="900" y="290" as="targetPoint" />
            <Array as="points">
              <mxPoint x="900" y="300" />
            </Array>
          </mxGeometry>
        </mxCell>
        <mxCell id="zBTWU3pzQS9BH3Dmyjje-32" value="searchMovie" style="sketch=0;points=[[0,0,0],[0.25,0,0],[0.5,0,0],[0.75,0,0],[1,0,0],[0,1,0],[0.25,1,0],[0.5,1,0],[0.75,1,0],[1,1,0],[0,0.25,0],[0,0.5,0],[0,0.75,0],[1,0.25,0],[1,0.5,0],[1,0.75,0]];outlineConnect=0;fontColor=#232F3E;fillColor=#ED7100;strokeColor=#ffffff;dashed=0;verticalLabelPosition=bottom;verticalAlign=top;align=center;html=1;fontSize=12;fontStyle=0;aspect=fixed;shape=mxgraph.aws4.resourceIcon;resIcon=mxgraph.aws4.lambda;" parent="1" vertex="1">
          <mxGeometry x="700" y="414" width="78" height="78" as="geometry" />
        </mxCell>
        <mxCell id="zBTWU3pzQS9BH3Dmyjje-33" value="" style="edgeStyle=orthogonalEdgeStyle;html=1;endArrow=block;elbow=vertical;startArrow=block;startFill=1;endFill=1;strokeColor=#545B64;rounded=0;" parent="1" source="UEzPUAAOIrF-is8g5C7q-114" target="zBTWU3pzQS9BH3Dmyjje-32" edge="1">
          <mxGeometry width="100" relative="1" as="geometry">
            <mxPoint x="520" y="400" as="sourcePoint" />
            <mxPoint x="620" y="400" as="targetPoint" />
            <Array as="points">
              <mxPoint x="620" y="380" />
              <mxPoint x="620" y="440" />
            </Array>
          </mxGeometry>
        </mxCell>
        <mxCell id="zBTWU3pzQS9BH3Dmyjje-35" value="" style="edgeStyle=orthogonalEdgeStyle;html=1;endArrow=block;elbow=vertical;startArrow=block;startFill=1;endFill=1;strokeColor=#545B64;rounded=0;exitX=1;exitY=0.5;exitDx=0;exitDy=0;exitPerimeter=0;" parent="1" source="zBTWU3pzQS9BH3Dmyjje-13" target="zBTWU3pzQS9BH3Dmyjje-2" edge="1">
          <mxGeometry width="100" relative="1" as="geometry">
            <mxPoint x="860" y="-120" as="sourcePoint" />
            <mxPoint x="960" y="-120" as="targetPoint" />
            <Array as="points">
              <mxPoint x="1110" y="-121" />
            </Array>
          </mxGeometry>
        </mxCell>
        <mxCell id="zBTWU3pzQS9BH3Dmyjje-36" value="" style="edgeStyle=orthogonalEdgeStyle;html=1;endArrow=block;elbow=vertical;startArrow=block;startFill=1;endFill=1;strokeColor=#545B64;rounded=0;exitX=1;exitY=0.5;exitDx=0;exitDy=0;exitPerimeter=0;" parent="1" source="zBTWU3pzQS9BH3Dmyjje-32" target="zBTWU3pzQS9BH3Dmyjje-2" edge="1">
          <mxGeometry width="100" relative="1" as="geometry">
            <mxPoint x="820" y="430" as="sourcePoint" />
            <mxPoint x="920" y="430" as="targetPoint" />
            <Array as="points">
              <mxPoint x="1040" y="453" />
              <mxPoint x="1040" y="280" />
            </Array>
          </mxGeometry>
        </mxCell>
        <mxCell id="zBTWU3pzQS9BH3Dmyjje-37" value="Ratings Table" style="sketch=0;outlineConnect=0;fontColor=#232F3E;gradientColor=none;strokeColor=#ffffff;fillColor=#232F3E;dashed=0;verticalLabelPosition=middle;verticalAlign=bottom;align=center;html=1;whiteSpace=wrap;fontSize=10;fontStyle=1;spacing=3;shape=mxgraph.aws4.productIcon;prIcon=mxgraph.aws4.dynamodb;" parent="1" vertex="1">
          <mxGeometry x="1089" y="380" width="80" height="99" as="geometry" />
        </mxCell>
        <mxCell id="zBTWU3pzQS9BH3Dmyjje-38" value="rateMovie" style="sketch=0;points=[[0,0,0],[0.25,0,0],[0.5,0,0],[0.75,0,0],[1,0,0],[0,1,0],[0.25,1,0],[0.5,1,0],[0.75,1,0],[1,1,0],[0,0.25,0],[0,0.5,0],[0,0.75,0],[1,0.25,0],[1,0.5,0],[1,0.75,0]];outlineConnect=0;fontColor=#232F3E;fillColor=#ED7100;strokeColor=#ffffff;dashed=0;verticalLabelPosition=bottom;verticalAlign=top;align=center;html=1;fontSize=12;fontStyle=0;aspect=fixed;shape=mxgraph.aws4.resourceIcon;resIcon=mxgraph.aws4.lambda;" parent="1" vertex="1">
          <mxGeometry x="701" y="530" width="78" height="78" as="geometry" />
        </mxCell>
        <mxCell id="zBTWU3pzQS9BH3Dmyjje-40" value="" style="edgeStyle=orthogonalEdgeStyle;html=1;endArrow=block;elbow=vertical;startArrow=block;startFill=1;endFill=1;strokeColor=#545B64;rounded=0;" parent="1" source="UEzPUAAOIrF-is8g5C7q-114" target="zBTWU3pzQS9BH3Dmyjje-38" edge="1">
          <mxGeometry width="100" relative="1" as="geometry">
            <mxPoint x="510" y="480" as="sourcePoint" />
            <mxPoint x="610" y="480" as="targetPoint" />
            <Array as="points">
              <mxPoint x="611" y="390" />
              <mxPoint x="611" y="569" />
            </Array>
          </mxGeometry>
        </mxCell>
        <mxCell id="zBTWU3pzQS9BH3Dmyjje-41" value="" style="edgeStyle=orthogonalEdgeStyle;html=1;endArrow=block;elbow=vertical;startArrow=none;endFill=1;strokeColor=#545B64;rounded=0;" parent="1" source="zBTWU3pzQS9BH3Dmyjje-38" target="zBTWU3pzQS9BH3Dmyjje-37" edge="1">
          <mxGeometry width="100" relative="1" as="geometry">
            <mxPoint x="850" y="550" as="sourcePoint" />
            <mxPoint x="950" y="550" as="targetPoint" />
            <Array as="points">
              <mxPoint x="1060" y="569" />
              <mxPoint x="1060" y="430" />
            </Array>
          </mxGeometry>
        </mxCell>
        <mxCell id="zBTWU3pzQS9BH3Dmyjje-42" value="Subscriptions Table" style="sketch=0;outlineConnect=0;fontColor=#232F3E;gradientColor=none;strokeColor=#ffffff;fillColor=#232F3E;dashed=0;verticalLabelPosition=middle;verticalAlign=bottom;align=center;html=1;whiteSpace=wrap;fontSize=10;fontStyle=1;spacing=3;shape=mxgraph.aws4.productIcon;prIcon=mxgraph.aws4.dynamodb;" parent="1" vertex="1">
          <mxGeometry x="1089" y="700" width="80" height="108" as="geometry" />
        </mxCell>
        <mxCell id="zBTWU3pzQS9BH3Dmyjje-44" value="subscribe" style="sketch=0;points=[[0,0,0],[0.25,0,0],[0.5,0,0],[0.75,0,0],[1,0,0],[0,1,0],[0.25,1,0],[0.5,1,0],[0.75,1,0],[1,1,0],[0,0.25,0],[0,0.5,0],[0,0.75,0],[1,0.25,0],[1,0.5,0],[1,0.75,0]];outlineConnect=0;fontColor=#232F3E;fillColor=#ED7100;strokeColor=#ffffff;dashed=0;verticalLabelPosition=bottom;verticalAlign=top;align=center;html=1;fontSize=12;fontStyle=0;aspect=fixed;shape=mxgraph.aws4.resourceIcon;resIcon=mxgraph.aws4.lambda;" parent="1" vertex="1">
          <mxGeometry x="701" y="650" width="78" height="78" as="geometry" />
        </mxCell>
        <mxCell id="zBTWU3pzQS9BH3Dmyjje-45" value="" style="edgeStyle=orthogonalEdgeStyle;html=1;endArrow=block;elbow=vertical;startArrow=block;startFill=1;endFill=1;strokeColor=#545B64;rounded=0;" parent="1" target="zBTWU3pzQS9BH3Dmyjje-44" edge="1">
          <mxGeometry width="100" relative="1" as="geometry">
            <mxPoint x="420" y="400" as="sourcePoint" />
            <mxPoint x="670" y="690" as="targetPoint" />
            <Array as="points">
              <mxPoint x="420" y="401" />
              <mxPoint x="570" y="401" />
              <mxPoint x="570" y="689" />
            </Array>
          </mxGeometry>
        </mxCell>
        <mxCell id="zBTWU3pzQS9BH3Dmyjje-47" value="" style="edgeStyle=orthogonalEdgeStyle;html=1;endArrow=block;elbow=vertical;startArrow=none;endFill=1;strokeColor=#545B64;rounded=0;exitX=1;exitY=0.5;exitDx=0;exitDy=0;exitPerimeter=0;" parent="1" source="zBTWU3pzQS9BH3Dmyjje-44" target="zBTWU3pzQS9BH3Dmyjje-42" edge="1">
          <mxGeometry width="100" relative="1" as="geometry">
            <mxPoint x="870" y="650" as="sourcePoint" />
            <mxPoint x="970" y="650" as="targetPoint" />
            <Array as="points">
              <mxPoint x="779" y="710" />
            </Array>
          </mxGeometry>
        </mxCell>
        <mxCell id="zBTWU3pzQS9BH3Dmyjje-48" value="Subscriptions Notifications Service" style="sketch=0;outlineConnect=0;fontColor=#232F3E;gradientColor=none;strokeColor=#ffffff;fillColor=#232F3E;dashed=0;verticalLabelPosition=middle;verticalAlign=bottom;align=center;html=1;whiteSpace=wrap;fontSize=10;fontStyle=1;spacing=3;shape=mxgraph.aws4.productIcon;prIcon=mxgraph.aws4.sns;" parent="1" vertex="1">
          <mxGeometry x="1300" y="-300" width="80" height="120" as="geometry" />
        </mxCell>
        <mxCell id="zBTWU3pzQS9BH3Dmyjje-50" value="" style="edgeStyle=orthogonalEdgeStyle;html=1;endArrow=block;elbow=vertical;startArrow=block;startFill=1;endFill=1;strokeColor=#545B64;rounded=0;exitX=1;exitY=0.75;exitDx=0;exitDy=0;exitPerimeter=0;" parent="1" edge="1">
          <mxGeometry width="100" relative="1" as="geometry">
            <mxPoint x="779" y="-259.9999999999998" as="sourcePoint" />
            <mxPoint x="1300.9999999999995" y="-258.5" as="targetPoint" />
            <Array as="points">
              <mxPoint x="1041" y="-259" />
              <mxPoint x="1301" y="-260" />
            </Array>
          </mxGeometry>
        </mxCell>
        <mxCell id="zBTWU3pzQS9BH3Dmyjje-51" value="Email" style="html=1;verticalLabelPosition=bottom;align=center;labelBackgroundColor=#ffffff;verticalAlign=top;strokeWidth=2;strokeColor=#0080F0;shadow=0;dashed=0;shape=mxgraph.ios7.icons.mail;" parent="1" vertex="1">
          <mxGeometry x="1560" y="-280" width="80" height="52" as="geometry" />
        </mxCell>
        <mxCell id="zBTWU3pzQS9BH3Dmyjje-52" value="" style="edgeStyle=orthogonalEdgeStyle;html=1;endArrow=block;elbow=vertical;startArrow=none;endFill=1;strokeColor=#545B64;rounded=0;entryX=-0.012;entryY=0.388;entryDx=0;entryDy=0;entryPerimeter=0;" parent="1" source="zBTWU3pzQS9BH3Dmyjje-48" target="zBTWU3pzQS9BH3Dmyjje-51" edge="1">
          <mxGeometry width="100" relative="1" as="geometry">
            <mxPoint x="1390" y="-260" as="sourcePoint" />
            <mxPoint x="1490" y="-260" as="targetPoint" />
            <Array as="points">
              <mxPoint x="1420" y="-260" />
              <mxPoint x="1420" y="-260" />
            </Array>
          </mxGeometry>
        </mxCell>
        <mxCell id="zBTWU3pzQS9BH3Dmyjje-53" value="unsubscribe" style="sketch=0;points=[[0,0,0],[0.25,0,0],[0.5,0,0],[0.75,0,0],[1,0,0],[0,1,0],[0.25,1,0],[0.5,1,0],[0.75,1,0],[1,1,0],[0,0.25,0],[0,0.5,0],[0,0.75,0],[1,0.25,0],[1,0.5,0],[1,0.75,0]];outlineConnect=0;fontColor=#232F3E;fillColor=#ED7100;strokeColor=#ffffff;dashed=0;verticalLabelPosition=bottom;verticalAlign=top;align=center;html=1;fontSize=12;fontStyle=0;aspect=fixed;shape=mxgraph.aws4.resourceIcon;resIcon=mxgraph.aws4.lambda;" parent="1" vertex="1">
          <mxGeometry x="700" y="770" width="78" height="78" as="geometry" />
        </mxCell>
        <mxCell id="zBTWU3pzQS9BH3Dmyjje-54" value="" style="edgeStyle=orthogonalEdgeStyle;html=1;endArrow=block;elbow=vertical;startArrow=block;startFill=1;endFill=1;strokeColor=#545B64;rounded=0;" parent="1" source="UEzPUAAOIrF-is8g5C7q-114" target="zBTWU3pzQS9BH3Dmyjje-53" edge="1">
          <mxGeometry width="100" relative="1" as="geometry">
            <mxPoint x="460" y="560" as="sourcePoint" />
            <mxPoint x="560" y="560" as="targetPoint" />
            <Array as="points">
              <mxPoint x="410" y="800" />
            </Array>
          </mxGeometry>
        </mxCell>
        <mxCell id="zBTWU3pzQS9BH3Dmyjje-55" value="" style="edgeStyle=orthogonalEdgeStyle;html=1;endArrow=block;elbow=vertical;startArrow=none;endFill=1;strokeColor=#545B64;rounded=0;exitX=1.026;exitY=0.385;exitDx=0;exitDy=0;exitPerimeter=0;" parent="1" source="zBTWU3pzQS9BH3Dmyjje-53" target="zBTWU3pzQS9BH3Dmyjje-42" edge="1">
          <mxGeometry width="100" relative="1" as="geometry">
            <mxPoint x="870" y="750" as="sourcePoint" />
            <mxPoint x="970" y="750" as="targetPoint" />
            <Array as="points">
              <mxPoint x="1030" y="800" />
              <mxPoint x="1030" y="740" />
            </Array>
          </mxGeometry>
        </mxCell>
        <mxCell id="zBTWU3pzQS9BH3Dmyjje-56" value="getAllSubcriptions" style="sketch=0;points=[[0,0,0],[0.25,0,0],[0.5,0,0],[0.75,0,0],[1,0,0],[0,1,0],[0.25,1,0],[0.5,1,0],[0.75,1,0],[1,1,0],[0,0.25,0],[0,0.5,0],[0,0.75,0],[1,0.25,0],[1,0.5,0],[1,0.75,0]];outlineConnect=0;fontColor=#232F3E;fillColor=#ED7100;strokeColor=#ffffff;dashed=0;verticalLabelPosition=bottom;verticalAlign=top;align=center;html=1;fontSize=12;fontStyle=0;aspect=fixed;shape=mxgraph.aws4.resourceIcon;resIcon=mxgraph.aws4.lambda;" parent="1" vertex="1">
          <mxGeometry x="700" y="880" width="78" height="78" as="geometry" />
        </mxCell>
        <mxCell id="zBTWU3pzQS9BH3Dmyjje-57" value="" style="edgeStyle=orthogonalEdgeStyle;html=1;endArrow=block;elbow=vertical;startArrow=block;startFill=1;endFill=1;strokeColor=#545B64;rounded=0;" parent="1" source="UEzPUAAOIrF-is8g5C7q-114" target="zBTWU3pzQS9BH3Dmyjje-56" edge="1">
          <mxGeometry width="100" relative="1" as="geometry">
            <mxPoint x="560" y="910" as="sourcePoint" />
            <mxPoint x="660" y="910" as="targetPoint" />
            <Array as="points">
              <mxPoint x="400" y="919" />
            </Array>
          </mxGeometry>
        </mxCell>
        <mxCell id="zBTWU3pzQS9BH3Dmyjje-58" value="" style="edgeStyle=orthogonalEdgeStyle;html=1;endArrow=block;elbow=vertical;startArrow=none;endFill=1;strokeColor=#545B64;rounded=0;exitX=1;exitY=0.5;exitDx=0;exitDy=0;exitPerimeter=0;" parent="1" source="zBTWU3pzQS9BH3Dmyjje-56" target="zBTWU3pzQS9BH3Dmyjje-42" edge="1">
          <mxGeometry width="100" relative="1" as="geometry">
            <mxPoint x="840" y="900" as="sourcePoint" />
            <mxPoint x="940" y="900" as="targetPoint" />
            <Array as="points">
              <mxPoint x="1060" y="919" />
              <mxPoint x="1060" y="770" />
            </Array>
          </mxGeometry>
        </mxCell>
        <mxCell id="zBTWU3pzQS9BH3Dmyjje-59" value="Downloads History Table" style="sketch=0;outlineConnect=0;fontColor=#232F3E;gradientColor=none;strokeColor=#ffffff;fillColor=#232F3E;dashed=0;verticalLabelPosition=middle;verticalAlign=bottom;align=center;html=1;whiteSpace=wrap;fontSize=10;fontStyle=1;spacing=3;shape=mxgraph.aws4.productIcon;prIcon=mxgraph.aws4.dynamodb;" parent="1" vertex="1">
          <mxGeometry x="1089" y="550" width="80" height="108" as="geometry" />
        </mxCell>
        <mxCell id="zBTWU3pzQS9BH3Dmyjje-60" value="" style="edgeStyle=orthogonalEdgeStyle;html=1;endArrow=block;elbow=vertical;startArrow=block;startFill=1;endFill=1;strokeColor=#545B64;rounded=0;" parent="1" source="zBTWU3pzQS9BH3Dmyjje-16" target="zBTWU3pzQS9BH3Dmyjje-59" edge="1">
          <mxGeometry width="100" relative="1" as="geometry">
            <mxPoint x="950" y="590" as="sourcePoint" />
            <mxPoint x="1050" y="590" as="targetPoint" />
            <Array as="points">
              <mxPoint x="870" y="50" />
              <mxPoint x="870" y="584" />
            </Array>
          </mxGeometry>
        </mxCell>
        <mxCell id="zBTWU3pzQS9BH3Dmyjje-61" value="" style="edgeStyle=orthogonalEdgeStyle;html=1;endArrow=block;elbow=vertical;startArrow=block;startFill=1;endFill=1;strokeColor=#545B64;rounded=0;exitX=1;exitY=0.75;exitDx=0;exitDy=0;exitPerimeter=0;" parent="1" source="zBTWU3pzQS9BH3Dmyjje-13" target="zBTWU3pzQS9BH3Dmyjje-59" edge="1">
          <mxGeometry width="100" relative="1" as="geometry">
            <mxPoint x="790" y="-100" as="sourcePoint" />
            <mxPoint x="890" y="-100" as="targetPoint" />
            <Array as="points">
              <mxPoint x="990" y="-101" />
              <mxPoint x="990" y="600" />
            </Array>
          </mxGeometry>
        </mxCell>
        <mxCell id="zBTWU3pzQS9BH3Dmyjje-62" value="getFeed" style="sketch=0;points=[[0,0,0],[0.25,0,0],[0.5,0,0],[0.75,0,0],[1,0,0],[0,1,0],[0.25,1,0],[0.5,1,0],[0.75,1,0],[1,1,0],[0,0.25,0],[0,0.5,0],[0,0.75,0],[1,0.25,0],[1,0.5,0],[1,0.75,0]];outlineConnect=0;fontColor=#232F3E;fillColor=#ED7100;strokeColor=#ffffff;dashed=0;verticalLabelPosition=bottom;verticalAlign=top;align=center;html=1;fontSize=12;fontStyle=0;aspect=fixed;shape=mxgraph.aws4.resourceIcon;resIcon=mxgraph.aws4.lambda;" parent="1" vertex="1">
          <mxGeometry x="700" y="1000" width="78" height="78" as="geometry" />
        </mxCell>
        <mxCell id="zBTWU3pzQS9BH3Dmyjje-63" value="" style="edgeStyle=orthogonalEdgeStyle;html=1;endArrow=block;elbow=vertical;startArrow=block;startFill=1;endFill=1;strokeColor=#545B64;rounded=0;" parent="1" source="UEzPUAAOIrF-is8g5C7q-114" target="zBTWU3pzQS9BH3Dmyjje-62" edge="1">
          <mxGeometry width="100" relative="1" as="geometry">
            <mxPoint x="530" y="1040" as="sourcePoint" />
            <mxPoint x="630" y="1040" as="targetPoint" />
            <Array as="points">
              <mxPoint x="379" y="1039" />
            </Array>
          </mxGeometry>
        </mxCell>
        <mxCell id="zBTWU3pzQS9BH3Dmyjje-64" value="" style="edgeStyle=orthogonalEdgeStyle;html=1;endArrow=block;elbow=vertical;startArrow=block;startFill=1;endFill=1;strokeColor=#545B64;rounded=0;" parent="1" source="zBTWU3pzQS9BH3Dmyjje-71" target="zBTWU3pzQS9BH3Dmyjje-42" edge="1">
          <mxGeometry width="100" relative="1" as="geometry">
            <mxPoint x="900" y="1030" as="sourcePoint" />
            <mxPoint x="1000" y="1030" as="targetPoint" />
          </mxGeometry>
        </mxCell>
        <mxCell id="zBTWU3pzQS9BH3Dmyjje-65" value="" style="edgeStyle=orthogonalEdgeStyle;html=1;endArrow=block;elbow=vertical;startArrow=block;startFill=1;endFill=1;strokeColor=#545B64;rounded=0;" parent="1" source="zBTWU3pzQS9BH3Dmyjje-71" target="zBTWU3pzQS9BH3Dmyjje-59" edge="1">
          <mxGeometry width="100" relative="1" as="geometry">
            <mxPoint x="830" y="1010" as="sourcePoint" />
            <mxPoint x="930" y="1010" as="targetPoint" />
            <Array as="points">
              <mxPoint x="870" y="1019" />
              <mxPoint x="1040" y="1019" />
              <mxPoint x="1040" y="620" />
            </Array>
          </mxGeometry>
        </mxCell>
        <mxCell id="zBTWU3pzQS9BH3Dmyjje-67" value="" style="edgeStyle=orthogonalEdgeStyle;html=1;endArrow=block;elbow=vertical;startArrow=block;startFill=1;endFill=1;strokeColor=#545B64;rounded=0;" parent="1" source="zBTWU3pzQS9BH3Dmyjje-71" target="zBTWU3pzQS9BH3Dmyjje-37" edge="1">
          <mxGeometry width="100" relative="1" as="geometry">
            <mxPoint x="810" y="1000" as="sourcePoint" />
            <mxPoint x="910" y="1000" as="targetPoint" />
            <Array as="points">
              <mxPoint x="900" y="980" />
              <mxPoint x="1020" y="980" />
              <mxPoint x="1020" y="429" />
            </Array>
          </mxGeometry>
        </mxCell>
        <mxCell id="zBTWU3pzQS9BH3Dmyjje-68" value="" style="edgeStyle=orthogonalEdgeStyle;html=1;endArrow=block;elbow=vertical;startArrow=block;startFill=1;endFill=1;strokeColor=#545B64;rounded=0;" parent="1" source="zBTWU3pzQS9BH3Dmyjje-71" target="zBTWU3pzQS9BH3Dmyjje-2" edge="1">
          <mxGeometry width="100" relative="1" as="geometry">
            <mxPoint x="800" y="1050" as="sourcePoint" />
            <mxPoint x="900" y="1050" as="targetPoint" />
            <Array as="points">
              <mxPoint x="980" y="1059" />
              <mxPoint x="980" y="300" />
            </Array>
          </mxGeometry>
        </mxCell>
        <mxCell id="zBTWU3pzQS9BH3Dmyjje-70" value="" style="edgeStyle=orthogonalEdgeStyle;html=1;endArrow=block;elbow=vertical;startArrow=block;startFill=1;endFill=1;strokeColor=#545B64;rounded=0;" parent="1" source="UEzPUAAOIrF-is8g5C7q-111" target="zBTWU3pzQS9BH3Dmyjje-48" edge="1">
          <mxGeometry width="100" relative="1" as="geometry">
            <mxPoint x="580" y="-530" as="sourcePoint" />
            <mxPoint x="680" y="-530" as="targetPoint" />
            <Array as="points">
              <mxPoint x="-171" y="-530" />
              <mxPoint x="1340" y="-530" />
            </Array>
          </mxGeometry>
        </mxCell>
        <mxCell id="zBTWU3pzQS9BH3Dmyjje-71" value="SQS for Feed" style="sketch=0;points=[[0,0,0],[0.25,0,0],[0.5,0,0],[0.75,0,0],[1,0,0],[0,1,0],[0.25,1,0],[0.5,1,0],[0.75,1,0],[1,1,0],[0,0.25,0],[0,0.5,0],[0,0.75,0],[1,0.25,0],[1,0.5,0],[1,0.75,0]];outlineConnect=0;fontColor=#232F3E;fillColor=#E7157B;strokeColor=#ffffff;dashed=0;verticalLabelPosition=bottom;verticalAlign=top;align=center;html=1;fontSize=12;fontStyle=0;aspect=fixed;shape=mxgraph.aws4.resourceIcon;resIcon=mxgraph.aws4.sqs;" parent="1" vertex="1">
          <mxGeometry x="862" y="1000" width="78" height="78" as="geometry" />
        </mxCell>
        <mxCell id="zBTWU3pzQS9BH3Dmyjje-74" value="" style="edgeStyle=orthogonalEdgeStyle;html=1;endArrow=block;elbow=vertical;startArrow=block;startFill=1;endFill=1;strokeColor=#545B64;rounded=0;" parent="1" source="zBTWU3pzQS9BH3Dmyjje-62" target="zBTWU3pzQS9BH3Dmyjje-71" edge="1">
          <mxGeometry width="100" relative="1" as="geometry">
            <mxPoint x="790" y="1150" as="sourcePoint" />
            <mxPoint x="890" y="1150" as="targetPoint" />
          </mxGeometry>
        </mxCell>
        <mxCell id="zBTWU3pzQS9BH3Dmyjje-76" value="transcodeMovie" style="sketch=0;points=[[0,0,0],[0.25,0,0],[0.5,0,0],[0.75,0,0],[1,0,0],[0,1,0],[0.25,1,0],[0.5,1,0],[0.75,1,0],[1,1,0],[0,0.25,0],[0,0.5,0],[0,0.75,0],[1,0.25,0],[1,0.5,0],[1,0.75,0]];outlineConnect=0;fontColor=#232F3E;fillColor=#ED7100;strokeColor=#ffffff;dashed=0;verticalLabelPosition=bottom;verticalAlign=top;align=center;html=1;fontSize=12;fontStyle=0;aspect=fixed;shape=mxgraph.aws4.resourceIcon;resIcon=mxgraph.aws4.lambda;" parent="1" vertex="1">
          <mxGeometry x="1180" y="-160" width="78" height="78" as="geometry" />
        </mxCell>
        <mxCell id="zBTWU3pzQS9BH3Dmyjje-79" value="" style="edgeStyle=orthogonalEdgeStyle;html=1;endArrow=block;elbow=vertical;startArrow=block;startFill=1;endFill=1;strokeColor=#545B64;rounded=0;entryX=0.5;entryY=0;entryDx=0;entryDy=0;entryPerimeter=0;" parent="1" source="zBTWU3pzQS9BH3Dmyjje-4" target="zBTWU3pzQS9BH3Dmyjje-76" edge="1">
          <mxGeometry width="100" relative="1" as="geometry">
            <mxPoint x="980" y="-440" as="sourcePoint" />
            <mxPoint x="1080" y="-440" as="targetPoint" />
            <Array as="points">
              <mxPoint x="1010" y="-440" />
              <mxPoint x="1208" y="-439" />
            </Array>
          </mxGeometry>
        </mxCell>
      </root>
    </mxGraphModel>
  </diagram>
</mxfile>
